{"title":"18+ Black Wake 2018 UNCENSORED Movies 720p HDRip x264 5.1 +Sampl","magnet":"magnet:?xt=urn:btih:58797e2a7b46b659a1090eec87daa9b5c0e7b9c0&dn=18%2B+Black+Wake+2018+UNCENSORED+Movies+720p+HDRip+x264+5.1+%2BSampl&tr=udp%3A%2F%2Ftracker.leechers-paradise.org%3A6969&tr=udp%3A%2F%2Fzer0day.ch%3A1337&tr=udp%3A%2F%2Fopen.demonii.com%3A1337&tr=udp%3A%2F%2Ftracker.coppersurfer.tk%3A6969&tr=udp%3A%2F%2Fexodus.desync.com%3A6969","uploader":"basicssom","categoryP":"video","categoryS":"hd___movies","size":"959434595","seeders":"0","leechers":"0","description":"18+ Black Wake 2018 UNCENSORED Movies 720p HDRip x264 5.1 with Sample &#x263B;rDX&#x263B;\r\n\r\nSCREEN SHOTS &amp; POSTER:\r\n   <a href=\"\nhttp://iphonehosting.eu/2018/9/iphonex/index.html\" rel=\"nofollow\" target=\"_NEW\">\nhttp://iphonehosting.eu/2018/9/iphonex/index.html</a> <a href=\"\nhttp://iphonehosting.eu/2018/9/iphonex/1.html\" rel=\"nofollow\" target=\"_NEW\">\nhttp://iphonehosting.eu/2018/9/iphonex/1.html</a> <a href=\"\nhttp://iphonehosting.eu/2018/9/iphonex/2.html\" rel=\"nofollow\" target=\"_NEW\">\nhttp://iphonehosting.eu/2018/9/iphonex/2.html</a>   <a href=\"\nhttp://iphonehosting.eu/2018/9/iphonex/3.html\" rel=\"nofollow\" target=\"_NEW\">\nhttp://iphonehosting.eu/2018/9/iphonex/3.html</a>   <a href=\"\nhttp://iphonehosting.eu/2018/9/iphonex/4.html\" rel=\"nofollow\" target=\"_NEW\">\nhttp://iphonehosting.eu/2018/9/iphonex/4.html</a>   <a href=\"\nhttp://iphonehosting.eu/2018/9/iphonex/5.html\" rel=\"nofollow\" target=\"_NEW\">\nhttp://iphonehosting.eu/2018/9/iphonex/5.html</a>   <a href=\"\nhttp://iphonehosting.eu/2018/9/iphonex/6.html\" rel=\"nofollow\" target=\"_NEW\">\nhttp://iphonehosting.eu/2018/9/iphonex/6.html</a>   <a href=\"\nhttp://iphonehosting.eu/2018/9/iphonex/7.html\" rel=\"nofollow\" target=\"_NEW\">\nhttp://iphonehosting.eu/2018/9/iphonex/7.html</a>   <a href=\"\nhttp://iphonehosting.eu/2018/9/iphonex/8.html\" rel=\"nofollow\" target=\"_NEW\">\nhttp://iphonehosting.eu/2018/9/iphonex/8.html</a>   <a href=\"\nhttp://iphonehosting.eu/2018/9/iphonex/9.html\" rel=\"nofollow\" target=\"_NEW\">\nhttp://iphonehosting.eu/2018/9/iphonex/9.html</a>   <a href=\"\nhttp://iphonehosting.eu/2018/9/iphonex/10.html\" rel=\"nofollow\" target=\"_NEW\">\nhttp://iphonehosting.eu/2018/9/iphonex/10.html</a>\r\n\r\nFile size                                : 905 MiB\r\nDuration                                 : 1 h 31 min\r\nOverall bit rate                         : 1 386 kb/s\r\nMovie name                               : 18+ Black Wake 2018 UNCENSORED Movies 720p HDRip x264 5.1 &#x263B;rDX&#x263B;\r\n\r\nVideo\r\nID                                       : 2\r\nFormat                                   : AVC\r\nFormat/Info                              : Advanced Video Codec\r\nFormat profile                           : High@L4.1\r\nFormat settings, CABAC                   : Yes\r\nFormat settings, ReFrames                : 4 frames\r\nCodec ID                                 : V_MPEG4/ISO/AVC\r\nDuration                                 : 1 h 31 min\r\nBit rate                                 : 1 000 kb/s\r\nWidth                                    : 1 272 pixels\r\nHeight                                   : 720 pixels\r\nDisplay aspect ratio                     : 16:9\r\nFrame rate mode                          : Constant\r\nFrame rate                               : 23.976 (24000/1001) FPS\r\nColor space                              : YUV\r\nChroma subsampling                       : 4:2:0\r\nBit depth                                : 8 bits\r\nScan type                                : Progressive\r\nBits/(Pixel*Frame)                       : 0.046\r\nStream size                              : 636 MiB (70%)\r\nTitle                                    : &#x263B;rDX&#x263B;\r\nWriting library                          : x264\r\n\r\nAudio\r\nID                                       : 1\r\nFormat                                   : AC-3\r\nFormat/Info                              : Audio Coding 3\r\nMode extension                           : CM (complete main)\r\nFormat settings, Endianness              : Big\r\nCodec ID                                 : A_AC3\r\nDuration                                 : 1 h 31 min\r\nBit rate mode                            : Constant\r\nBit rate                                 : 384 kb/s\r\nChannel(s)                               : 6 channels\r\nChannel positions                        : Front: L C R, Side: L R, LFE\r\nSampling rate                            : 48.0 kHz\r\nFrame rate                               : 31.250 FPS (1536 spf)\r\nBit depth                                : 16 bits\r\nCompression mode                         : Lossy\r\nStream size                              : 251 MiB (28%)\r\nTitle                                    : &#x263B;rDX&#x263B;\r\nLanguage                                 : English\r\nDefault                                  : No\r\nForced                                   : No\r\n <a href=\"\nhttps://www.imdb.com/title/tt4839118/\" rel=\"nofollow\" target=\"_NEW\">\nhttps://www.imdb.com/title/tt4839118/</a>","last_updated":"2018-09-14T12:01:17.433Z","parsed":{"xt":"urn:btih:58797e2a7b46b659a1090eec87daa9b5c0e7b9c0","dn":"18  Black Wake 2018 UNCENSORED Movies 720p HDRip x264 5.1  Sampl","tr":["udp://exodus.desync.com:6969","udp://open.demonii.com:1337","udp://tracker.coppersurfer.tk:6969","udp://tracker.leechers-paradise.org:6969","udp://zer0day.ch:1337"],"infoHash":"58797e2a7b46b659a1090eec87daa9b5c0e7b9c0","infoHashBuffer":{"type":"Buffer","data":[88,121,126,42,123,70,182,89,161,9,14,236,135,218,169,181,192,231,185,192]},"name":"18  Black Wake 2018 UNCENSORED Movies 720p HDRip x264 5.1  Sampl","announce":["udp://exodus.desync.com:6969","udp://open.demonii.com:1337","udp://tracker.coppersurfer.tk:6969","udp://tracker.leechers-paradise.org:6969","udp://zer0day.ch:1337"],"urlList":[]}}